<?xml version="1.0" standalone="no"?>
<!DOCTYPE svg PUBLIC "-//W3C//DTD SVG 20010904//EN"
 "http://www.w3.org/TR/2001/REC-SVG-20010904/DTD/svg10.dtd">
<svg version="1.0" xmlns="http://www.w3.org/2000/svg"
 width="132.000000pt" height="132.000000pt" viewBox="0 0 132.000000 132.000000"
 preserveAspectRatio="xMidYMid meet">
<metadata>
Created by potrace 1.11, written by Peter Selinger 2001-2013
</metadata>
<g transform="translate(0.000000,132.000000) scale(0.100000,-0.100000)"
fill="#000000" stroke="none">
<path d="M629 1228 c-68 -80 -136 -154 -224 -243 -140 -142 -184 -220 -204
-355 -11 -74 -11 -94 3 -155 9 -38 23 -80 31 -92 8 -12 15 -31 15 -41 0 -49
132 -195 189 -209 14 -3 43 -15 64 -26 46 -24 145 -46 207 -47 106 0 227 52
319 139 96 91 161 232 161 353 0 65 -14 118 -32 118 -8 0 -4 -92 7 -162 2 -15
0 -30 -5 -33 -6 -3 -10 -15 -10 -26 0 -10 -4 -27 -9 -37 -5 -9 -16 -33 -25
-53 -26 -61 -97 -148 -145 -178 -65 -40 -111 -61 -136 -61 -11 0 -26 -5 -32
-11 -7 -7 -29 -9 -64 -4 -42 6 -49 9 -35 17 10 6 38 7 62 3 27 -4 44 -2 44 4
0 5 -8 11 -17 13 -13 3 -8 9 19 22 136 66 214 219 184 362 -19 89 -62 161 -91
150 -12 -4 -8 -18 20 -73 65 -125 54 -242 -31 -333 -68 -73 -120 -95 -223 -95
-76 0 -92 3 -132 27 -58 34 -95 77 -127 147 -21 45 -24 64 -20 126 5 80 25
122 87 188 42 45 69 60 154 88 110 36 189 50 320 56 129 6 146 12 114 45 -7 7
-19 22 -27 34 -8 12 -44 54 -80 95 -68 77 -151 170 -160 179 -3 3 -27 31 -53
63 -27 31 -54 57 -61 57 -7 0 -32 -23 -57 -52z"/>
<path d="M1023 673 c3 -10 15 -43 26 -73 45 -118 9 -259 -92 -362 -27 -27 -46
-52 -43 -55 11 -11 111 101 133 147 39 85 43 101 43 177 0 74 -14 145 -33 171
-15 19 -40 15 -34 -5z"/>
<path d="M870 170 c0 -5 4 -10 9 -10 6 0 13 5 16 10 3 6 -1 10 -9 10 -9 0 -16
-4 -16 -10z"/>
<path d="M830 150 c0 -5 7 -10 15 -10 8 0 15 5 15 10 0 6 -7 10 -15 10 -8 0
-15 -4 -15 -10z"/>
</g>
</svg>
